HIERARCHY
ROOT Hips
{
	OFFSET 0.000000 87.230942 0.000000
	CHANNELS 6 Xposition Yposition Zposition Xrotation Yrotation Zrotation
	JOINT Pelvis
	{
		OFFSET 0.000000 0.000000 0.000000
		CHANNELS 3 Xrotation Yrotation Zrotation
		JOINT LeftUpLeg
		{
			OFFSET 12.017000 -9.376404 -2.439400
			CHANNELS 3 Xrotation Yrotation Zrotation
			JOINT LeftLeg
			{
				OFFSET -0.007312 -32.846973 2.110600
				CHANNELS 3 Xrotation Yrotation Zrotation
				JOINT LeftFoot
				{
					OFFSET 0.007312 -32.065170 -0.570400
					CHANNELS 3 Xrotation Yrotation Zrotation
					JOINT LeftToeBase
					{
						OFFSET 0.728300 -11.045900 13.180700
						CHANNELS 3 Xrotation Yrotation Zrotation
						End Site
						{
							OFFSET 0.000000 17.212589 0.000000
						}
					}
				}
				JOINT LeftPantLeg
				{
					OFFSET 0.002788 -16.709013 -3.143600
					CHANNELS 3 Xrotation Yrotation Zrotation
					End Site
					{
						OFFSET -0.605125 24.528742 0.000000
					}
				}
			}
			JOINT Left_Butt
			{
				OFFSET -6.630234 1.326584 -3.183700
				CHANNELS 3 Xrotation Yrotation Zrotation
				End Site
				{
					OFFSET -0.498041 20.188049 0.000000
				}
			}
		}
		JOINT RightUpLeg
		{
			OFFSET -11.717000 -9.376404 -2.439400
			CHANNELS 3 Xrotation Yrotation Zrotation
			JOINT RightLeg
			{
				OFFSET -0.003241 -32.846912 2.110600
				CHANNELS 3 Xrotation Yrotation Zrotation
				JOINT RightFoot
				{
					OFFSET 0.003241 -32.065136 -0.570500
					CHANNELS 3 Xrotation Yrotation Zrotation
					JOINT RightToeBase
					{
						OFFSET -0.728300 -11.045901 13.180700
						CHANNELS 3 Xrotation Yrotation Zrotation
						End Site
						{
							OFFSET 0.000000 17.212593 0.000000
						}
					}
				}
				JOINT RightPantLeg
				{
					OFFSET 0.008142 -16.708982 -3.143700
					CHANNELS 3 Xrotation Yrotation Zrotation
					End Site
					{
						OFFSET 0.605088 24.528715 0.000000
					}
				}
			}
			JOINT Right_Butt
			{
				OFFSET 6.630732 1.326584 -3.183700
				CHANNELS 3 Xrotation Yrotation Zrotation
				End Site
				{
					OFFSET 0.498015 20.188240 0.000000
				}
			}
		}
	}
	JOINT Spine
	{
		OFFSET -0.062400 7.848404 3.918300
		CHANNELS 3 Xrotation Yrotation Zrotation
		JOINT Spine1
		{
			OFFSET -0.072800 11.422302 0.713400
			CHANNELS 3 Xrotation Yrotation Zrotation
			JOINT Spine2
			{
				OFFSET -0.083200 13.054001 -1.931600
				CHANNELS 3 Xrotation Yrotation Zrotation
				JOINT Neck
				{
					OFFSET -0.092200 14.121796 -5.138800
					CHANNELS 3 Xrotation Yrotation Zrotation
					JOINT Head
					{
						OFFSET 0.000200 10.447403 -0.842000
						CHANNELS 3 Xrotation Yrotation Zrotation
						JOINT Visor
						{
							OFFSET 0.457100 25.671204 16.550400
							CHANNELS 3 Xrotation Yrotation Zrotation
							End Site
							{
								OFFSET 0.000000 26.061493 0.000000
							}
						}
						JOINT HairMidA
						{
							OFFSET 0.459400 31.585403 8.437400
							CHANNELS 3 Xrotation Yrotation Zrotation
							End Site
							{
								OFFSET 0.000000 26.061493 0.000000
							}
						}
						JOINT HairMidB
						{
							OFFSET 0.464000 33.309204 -8.389700
							CHANNELS 3 Xrotation Yrotation Zrotation
							End Site
							{
								OFFSET 0.000000 26.061493 0.000000
							}
						}
						JOINT HairMidC
						{
							OFFSET 0.466600 27.991196 -17.375099
							CHANNELS 3 Xrotation Yrotation Zrotation
							End Site
							{
								OFFSET 0.000000 26.061493 0.000000
							}
						}
						JOINT HairMidD
						{
							OFFSET 0.467700 17.888092 -21.169500
							CHANNELS 3 Xrotation Yrotation Zrotation
							End Site
							{
								OFFSET 0.000000 26.061493 0.000000
							}
						}
						JOINT HairMidE
						{
							OFFSET 5.325700 3.514603 -14.369699
							CHANNELS 3 Xrotation Yrotation Zrotation
							End Site
							{
								OFFSET 0.000000 26.061493 0.000000
							}
						}
						JOINT HairMidF
						{
							OFFSET -4.394100 3.514603 -14.372400
							CHANNELS 3 Xrotation Yrotation Zrotation
							End Site
							{
								OFFSET 0.000000 26.061493 0.000000
							}
						}
						JOINT HairLeftA
						{
							OFFSET 15.319900 25.746506 2.623300
							CHANNELS 3 Xrotation Yrotation Zrotation
							End Site
							{
								OFFSET 0.000000 26.061493 0.000000
							}
						}
						JOINT HairLeftB
						{
							OFFSET 12.619500 29.289398 -8.731499
							CHANNELS 3 Xrotation Yrotation Zrotation
							End Site
							{
								OFFSET 0.000000 26.061493 0.000000
							}
						}
						JOINT HairLeftC
						{
							OFFSET 15.714800 15.959900 2.909800
							CHANNELS 3 Xrotation Yrotation Zrotation
							End Site
							{
								OFFSET 0.000000 26.061493 0.000000
							}
						}
						JOINT HairLeftD
						{
							OFFSET 16.101700 18.437408 -7.553200
							CHANNELS 3 Xrotation Yrotation Zrotation
							End Site
							{
								OFFSET 0.000000 26.061493 0.000000
							}
						}
						JOINT HairLeftE
						{
							OFFSET 9.731900 17.915009 -18.316799
							CHANNELS 3 Xrotation Yrotation Zrotation
							End Site
							{
								OFFSET 0.000000 26.061493 0.000000
							}
						}
						JOINT HairLeftF
						{
							OFFSET 11.204300 4.953598 -9.668100
							CHANNELS 3 Xrotation Yrotation Zrotation
							End Site
							{
								OFFSET 0.000000 26.061493 0.000000
							}
						}
						JOINT HairRightA
						{
							OFFSET -14.397900 25.746307 2.615100
							CHANNELS 3 Xrotation Yrotation Zrotation
							End Site
							{
								OFFSET 0.000000 26.061493 0.000000
							}
						}
						JOINT HairRightB
						{
							OFFSET -11.691200 29.289200 -8.738199
							CHANNELS 3 Xrotation Yrotation Zrotation
							End Site
							{
								OFFSET 0.000000 26.061493 0.000000
							}
						}
						JOINT HairRightC
						{
							OFFSET -14.792900 15.959702 2.901400
							CHANNELS 3 Xrotation Yrotation Zrotation
							End Site
							{
								OFFSET 0.000000 26.061493 0.000000
							}
						}
						JOINT HairRightD
						{
							OFFSET -15.174000 18.437195 -7.561900
							CHANNELS 3 Xrotation Yrotation Zrotation
							End Site
							{
								OFFSET 0.000000 26.061493 0.000000
							}
						}
						JOINT HairRightE
						{
							OFFSET -8.798200 17.914902 -18.322001
							CHANNELS 3 Xrotation Yrotation Zrotation
							End Site
							{
								OFFSET 0.000000 26.061493 0.000000
							}
						}
						JOINT HairRightF
						{
							OFFSET -10.275200 4.953506 -9.674099
							CHANNELS 3 Xrotation Yrotation Zrotation
							End Site
							{
								OFFSET 0.000000 26.061493 0.000000
							}
						}
					}
				}
				JOINT LeftShoulder
				{
					OFFSET 5.133500 7.341202 -1.867600
					CHANNELS 3 Xrotation Yrotation Zrotation
					JOINT LeftArm
					{
						OFFSET 8.072663 0.936867 -2.176600
						CHANNELS 3 Xrotation Yrotation Zrotation
						JOINT LeftForeArm
						{
							OFFSET 31.271999 0.000000 0.000000
							CHANNELS 3 Xrotation Yrotation Zrotation
							JOINT LeftHand
							{
								OFFSET 31.771030 0.000000 0.000000
								CHANNELS 3 Xrotation Yrotation Zrotation
								JOINT LeftHandThumb1
								{
									OFFSET 2.886520 -2.557846 4.416640
									CHANNELS 3 Xrotation Yrotation Zrotation
									JOINT LeftHandThumb2
									{
										OFFSET 2.371025 -1.368912 1.368911
										CHANNELS 3 Xrotation Yrotation Zrotation
										JOINT LeftHandThumb3
										{
											OFFSET 2.243378 -1.295212 1.295213
											CHANNELS 3 Xrotation Yrotation Zrotation
											End Site
											{
												OFFSET -0.332611 2.876945 0.020015
											}
										}
									}
								}
								JOINT LeftHandIndex1
								{
									OFFSET 8.568985 -0.641945 3.119977
									CHANNELS 3 Xrotation Yrotation Zrotation
									JOINT LeftHandIndex2
									{
										OFFSET 3.348503 0.000000 0.000000
										CHANNELS 3 Xrotation Yrotation Zrotation
										JOINT LeftHandIndex3
										{
											OFFSET 3.314552 0.000000 0.000000
											CHANNELS 3 Xrotation Yrotation Zrotation
											End Site
											{
												OFFSET -1.032898 3.075485 0.678796
											}
										}
									}
								}
								JOINT LeftHandMiddle1
								{
									OFFSET 8.124603 0.000000 0.000000
									CHANNELS 3 Xrotation Yrotation Zrotation
									JOINT LeftHandMiddle2
									{
										OFFSET 4.166275 0.000000 0.000000
										CHANNELS 3 Xrotation Yrotation Zrotation
										JOINT LeftHandMiddle3
										{
											OFFSET 3.018135 0.000000 0.000000
											CHANNELS 3 Xrotation Yrotation Zrotation
											End Site
											{
												OFFSET -1.032700 2.767982 0.617226
											}
										}
									}
								}
								JOINT LeftHandRing1
								{
									OFFSET 8.571686 -0.031357 -2.884048
									CHANNELS 3 Xrotation Yrotation Zrotation
									JOINT LeftHandRing2
									{
										OFFSET 3.671181 0.000000 0.000000
										CHANNELS 3 Xrotation Yrotation Zrotation
										JOINT LeftHandRing3
										{
											OFFSET 2.728851 0.000000 0.000000
											CHANNELS 3 Xrotation Yrotation Zrotation
											End Site
											{
												OFFSET -0.815796 2.539223 0.577389
											}
										}
									}
								}
								JOINT LeftHandPinky1
								{
									OFFSET 7.854515 -0.675232 -5.213020
									CHANNELS 3 Xrotation Yrotation Zrotation
									JOINT LeftHandPinky2
									{
										OFFSET 3.068596 0.000000 0.000000
										CHANNELS 3 Xrotation Yrotation Zrotation
										JOINT LeftHandPinky3
										{
											OFFSET 2.396042 0.000000 0.000000
											CHANNELS 3 Xrotation Yrotation Zrotation
											End Site
											{
												OFFSET -0.524597 2.267998 0.567429
											}
										}
									}
								}
							}
							JOINT LeftSleeve
							{
								OFFSET 19.684509 -0.200119 0.476146
								CHANNELS 3 Xrotation Yrotation Zrotation
								End Site
								{
									OFFSET -0.031017 25.731133 -0.002868
								}
							}
						}
					}
				}
				JOINT RightShoulder
				{
					OFFSET -4.395900 7.341202 -1.870200
					CHANNELS 3 Xrotation Yrotation Zrotation
					JOINT RightArm
					{
						OFFSET -8.071453 0.936867 -2.181100
						CHANNELS 3 Xrotation Yrotation Zrotation
						JOINT RightForeArm
						{
							OFFSET -31.272011 0.000000 0.000000
							CHANNELS 3 Xrotation Yrotation Zrotation
							JOINT RightHand
							{
								OFFSET -31.771019 0.000000 0.000000
								CHANNELS 3 Xrotation Yrotation Zrotation
								JOINT RightHandThumb1
								{
									OFFSET -2.886520 -2.557808 4.416626
									CHANNELS 3 Xrotation Yrotation Zrotation
									JOINT RightHandThumb2
									{
										OFFSET -2.371056 -1.368927 1.368928
										CHANNELS 3 Xrotation Yrotation Zrotation
										JOINT RightHandThumb3
										{
											OFFSET -2.243362 -1.295204 1.295206
											CHANNELS 3 Xrotation Yrotation Zrotation
											End Site
											{
												OFFSET 0.332642 2.876938 0.020047
											}
										}
									}
								}
								JOINT RightHandIndex1
								{
									OFFSET -8.568993 -0.641953 3.120017
									CHANNELS 3 Xrotation Yrotation Zrotation
									JOINT RightHandIndex2
									{
										OFFSET -3.348518 0.000000 0.000000
										CHANNELS 3 Xrotation Yrotation Zrotation
										JOINT RightHandIndex3
										{
											OFFSET -3.314552 0.000000 0.000000
											CHANNELS 3 Xrotation Yrotation Zrotation
											End Site
											{
												OFFSET 1.032898 3.075478 0.678804
											}
										}
									}
								}
								JOINT RightHandMiddle1
								{
									OFFSET -8.124588 0.000000 0.000000
									CHANNELS 3 Xrotation Yrotation Zrotation
									JOINT RightHandMiddle2
									{
										OFFSET -4.166275 0.000000 0.000000
										CHANNELS 3 Xrotation Yrotation Zrotation
										JOINT RightHandMiddle3
										{
											OFFSET -3.018097 0.000000 0.000000
											CHANNELS 3 Xrotation Yrotation Zrotation
											End Site
											{
												OFFSET 1.032700 2.767937 0.617197
											}
										}
									}
								}
								JOINT RightHandRing1
								{
									OFFSET -8.571747 -0.031349 -2.884061
									CHANNELS 3 Xrotation Yrotation Zrotation
									JOINT RightHandRing2
									{
										OFFSET -3.671204 0.000000 0.000000
										CHANNELS 3 Xrotation Yrotation Zrotation
										JOINT RightHandRing3
										{
											OFFSET -2.728874 0.000000 0.000000
											CHANNELS 3 Xrotation Yrotation Zrotation
											End Site
											{
												OFFSET 0.815804 2.539261 0.577413
											}
										}
									}
								}
								JOINT RightHandPinky1
								{
									OFFSET -7.854561 -0.675247 -5.212970
									CHANNELS 3 Xrotation Yrotation Zrotation
									JOINT RightHandPinky2
									{
										OFFSET -3.068550 0.000000 0.000000
										CHANNELS 3 Xrotation Yrotation Zrotation
										JOINT RightHandPinky3
										{
											OFFSET -2.395981 0.000000 0.000000
											CHANNELS 3 Xrotation Yrotation Zrotation
											End Site
											{
												OFFSET 0.524605 2.267952 0.567413
											}
										}
									}
								}
							}
							JOINT RightSleeve
							{
								OFFSET -19.684753 -0.200165 0.476065
								CHANNELS 3 Xrotation Yrotation Zrotation
								End Site
								{
									OFFSET 0.031342 25.731255 -0.002917
								}
							}
						}
					}
				}
				JOINT Hood
				{
					OFFSET 0.369700 14.447800 -5.317800
					CHANNELS 3 Xrotation Yrotation Zrotation
					JOINT Hood1
					{
						OFFSET 0.001700 -5.553802 -5.895100
						CHANNELS 3 Xrotation Yrotation Zrotation
						JOINT Hood2
						{
							OFFSET -0.000200 -8.380501 0.763600
							CHANNELS 3 Xrotation Yrotation Zrotation
							End Site
							{
								OFFSET 0.000000 8.415215 0.000000
							}
						}
					}
				}
				JOINT Left_Breast
				{
					OFFSET 5.682500 3.120102 3.188800
					CHANNELS 3 Xrotation Yrotation Zrotation
					End Site
					{
						OFFSET 0.000000 10.528564 0.000000
					}
				}
				JOINT Right_Breast
				{
					OFFSET -4.947600 3.120102 3.185900
					CHANNELS 3 Xrotation Yrotation Zrotation
					End Site
					{
						OFFSET 0.000000 10.528564 0.000000
					}
				}
				JOINT Whistle
				{
					OFFSET 0.368200 11.471298 0.095400
					CHANNELS 3 Xrotation Yrotation Zrotation
					JOINT Whistle1
					{
						OFFSET -0.002000 -6.349899 7.479800
						CHANNELS 3 Xrotation Yrotation Zrotation
						JOINT Whistle2
						{
							OFFSET -0.001300 -8.217598 4.717600
							CHANNELS 3 Xrotation Yrotation Zrotation
							End Site
							{
								OFFSET 0.000000 9.475479 0.000000
							}
						}
					}
				}
			}
		}
		JOINT Belly
		{
			OFFSET 0.212400 1.593002 3.163700
			CHANNELS 3 Xrotation Yrotation Zrotation
			End Site
			{
				OFFSET 0.000000 7.496635 0.000000
			}
		}
	}
	JOINT FitGrandmaFacialAnim_Joint
	{
		OFFSET 1.150000 -86.211197 -1.220100
		CHANNELS 3 Xrotation Yrotation Zrotation
		End Site
		{
			OFFSET 0.000000 31.666618 0.000000
		}
	}
}
MOTION
Frames: 4
Frame Time: 0.016667
3.580898 75.261642 1.260290 21.483262 -4.142615 -26.762699 0.000001 -0.000001 -0.000000 -74.734782 -6.980160 26.335031 68.956675 -8.252842 10.312466 -20.192657 -2.817444 -2.997979 0.000000 -0.000000 -0.000000 0.000001 -0.000000 -0.000000 0.000001 -0.000001 -0.000001 -27.016694 -30.324168 14.655206 35.371036 -10.684474 0.799426 -16.872174 -8.766121 9.790164 0.000000 -0.000002 -0.000000 0.000000 0.000002 0.000001 -0.000000 0.000000 -0.000001 9.681569 1.339982 -16.901889 6.445038 2.740807 -10.688256 6.249403 2.693593 -10.811398 -0.796411 4.356714 -3.690196 -8.154885 18.426612 -3.530661 -0.000000 0.000002 -0.000001 -0.000000 0.000002 -0.000001 -0.000000 0.000002 -0.000001 -0.000000 0.000002 -0.000001 -0.000000 0.000002 -0.000001 -0.000000 0.000002 -0.000001 -0.000000 0.000002 -0.000001 -0.000000 0.000002 -0.000001 -0.000000 0.000002 -0.000001 -0.000000 0.000002 -0.000001 -0.000000 0.000002 -0.000001 -0.000000 0.000002 -0.000001 -0.000000 0.000002 -0.000001 -0.000000 0.000002 -0.000001 -0.000000 0.000002 -0.000001 -0.000000 0.000002 -0.000001 -0.000000 0.000002 -0.000001 -0.000000 0.000002 -0.000001 -0.000000 0.000002 -0.000001 0.763370 -2.243207 16.026737 -56.139592 -44.766631 -98.210006 -0.000037 -55.603870 -0.000033 -74.109684 -27.707885 14.239191 35.234555 -17.219633 -17.236881 29.406836 28.726519 -29.411792 -0.000001 0.000002 -0.000001 0.797693 3.221903 -27.804756 0.799601 3.225515 -27.838615 0.000001 -0.000000 0.000000 0.796788 3.220214 -27.788720 0.800487 3.227227 -27.854649 -0.000001 -0.000002 0.000000 0.797696 3.221915 -27.804756 0.799602 3.225538 -27.838613 0.000001 0.000001 0.000000 2.684961 6.814125 -27.459503 0.809050 -0.835583 -28.291870 -0.000001 -0.000001 0.000002 -0.000001 0.000002 -0.000002 -0.201843 -4.974902 1.334814 -165.753255 118.380210 181.246815 -0.000088 71.160148 0.000060 -23.198502 1.097505 -16.760436 40.606636 -3.110574 26.124241 -37.849527 -44.264994 -46.874960 0.000001 0.000001 -0.000002 3.635328 -6.110992 61.464497 7.728621 -6.904499 96.464449 -0.000001 -0.000001 0.000005 3.635315 -6.110992 61.464504 7.728610 -6.904484 96.464456 0.000001 -0.000000 -0.000003 3.635342 -6.111001 61.464497 7.728605 -6.904487 96.464442 -0.000003 -0.000002 0.000001 3.635340 -6.111030 61.464504 7.728586 -6.904459 96.464442 -0.000003 -0.000001 0.000000 -0.000001 0.000000 0.000000 -0.000001 0.000000 -0.000001 -0.000001 0.000000 -0.000001 -0.000001 0.000000 -0.000001 -0.000001 0.000000 -0.000001 -0.000001 0.000000 -0.000001 -0.000001 0.000000 -0.000001 -0.000002 -0.000001 -0.000002 -0.000002 -0.000001 -0.000002 -0.000001 -0.000002 0.000001 0.000001 -0.000001 -0.000000 
3.569633 75.339699 1.242214 21.274969 -4.414222 -26.401020 -0.000001 0.000000 -0.000000 -74.482311 -6.408108 26.541319 68.833267 -8.290848 10.316655 -20.243202 -2.763518 -2.924066 -0.000000 0.000000 -0.000000 0.000000 0.000000 0.000000 -0.000003 -0.000000 -0.000000 -27.140902 -30.009823 14.343513 35.396728 -10.666150 0.869995 -16.805682 -8.618820 9.715384 -0.000000 -0.000003 -0.000000 0.000001 0.000001 -0.000001 0.000000 -0.000002 0.000000 9.742157 1.311949 -16.816025 6.493366 2.713991 -10.616018 6.300756 2.667745 -10.739123 0.207072 4.314712 -3.404718 -7.207431 18.522087 -2.767395 0.000001 0.000002 -0.000000 0.000001 0.000002 -0.000000 0.000001 0.000002 -0.000000 0.000001 0.000002 -0.000000 0.000001 0.000002 -0.000000 0.000001 0.000002 -0.000000 0.000001 0.000002 -0.000000 0.000001 0.000002 -0.000000 0.000001 0.000002 -0.000000 0.000001 0.000002 -0.000000 0.000001 0.000002 -0.000000 0.000001 0.000002 -0.000000 0.000001 0.000002 -0.000000 0.000001 0.000002 -0.000000 0.000001 0.000002 -0.000000 0.000001 0.000002 -0.000000 0.000001 0.000002 -0.000000 0.000001 0.000002 -0.000000 0.000001 0.000002 -0.000000 0.722178 -2.099710 15.969384 -55.551476 -45.310826 -97.712625 -0.000033 -55.602996 -0.000025 -74.614749 -26.963261 14.427200 35.234552 -17.219631 -17.236877 29.406836 28.726522 -29.411792 -0.000004 0.000002 -0.000003 0.797696 3.221899 -27.804761 0.799604 3.225516 -27.838618 0.000000 0.000000 -0.000003 0.796790 3.220213 -27.788719 0.800483 3.227227 -27.854649 -0.000001 -0.000001 0.000000 0.797696 3.221917 -27.804752 0.799604 3.225539 -27.838613 -0.000000 0.000000 0.000000 2.684962 6.814126 -27.459503 0.809049 -0.835585 -28.291866 0.000000 -0.000001 0.000001 -0.000001 -0.000002 0.000002 -0.173800 -4.568110 0.662844 -166.330406 118.064601 182.610012 0.000003 70.533936 -0.000007 -24.020042 1.292599 -16.773078 40.606636 -3.110575 26.124236 -37.849531 -44.264994 -46.874960 -0.000000 0.000002 0.000001 3.635330 -6.110993 61.464497 7.728620 -6.904493 96.464442 -0.000003 -0.000002 0.000003 3.635323 -6.110989 61.464504 7.728613 -6.904487 96.464456 0.000000 -0.000001 -0.000004 3.635346 -6.111002 61.464490 7.728602 -6.904485 96.464449 0.000000 -0.000001 0.000003 3.635343 -6.111030 61.464497 7.728585 -6.904457 96.464449 0.000001 0.000001 -0.000003 0.000001 -0.000001 -0.000000 -0.000000 0.000001 0.000002 -0.000000 0.000001 0.000002 -0.000000 0.000001 0.000002 -0.000000 0.000001 0.000002 -0.000000 0.000001 0.000002 -0.000000 0.000001 0.000003 -0.000000 -0.000000 -0.000000 -0.000000 -0.000000 -0.000000 -0.000000 -0.000001 0.000000 -0.000001 0.000000 -0.000000 
3.541672 75.415344 1.227327 21.037527 -4.742064 -26.056690 0.000001 -0.000000 0.000000 -74.193736 -5.894059 26.797658 68.741660 -8.343855 10.322139 -20.322666 -2.633263 -2.882454 0.000000 -0.000000 -0.000000 0.000001 -0.000001 0.000000 0.000001 0.000000 0.000000 -27.227576 -29.657119 14.106789 35.406649 -10.658231 0.921214 -16.733793 -8.458831 9.636068 -0.000000 -0.000003 -0.000000 -0.000002 -0.000001 0.000003 -0.000000 -0.000000 0.000001 9.789633 1.285460 -16.733929 6.534446 2.691603 -10.541830 6.345206 2.646779 -10.664559 1.163589 4.299135 -3.121163 -6.113500 18.694860 -2.004243 -0.000000 -0.000000 -0.000001 -0.000000 -0.000000 -0.000001 -0.000000 -0.000000 -0.000001 -0.000000 -0.000000 -0.000001 -0.000000 -0.000000 -0.000001 -0.000000 -0.000000 -0.000001 -0.000000 -0.000000 -0.000001 -0.000000 -0.000000 -0.000001 -0.000000 -0.000000 -0.000001 -0.000000 -0.000000 -0.000001 -0.000000 -0.000000 -0.000001 -0.000000 -0.000000 -0.000001 -0.000000 -0.000000 -0.000001 -0.000000 -0.000000 -0.000001 -0.000000 -0.000000 -0.000001 -0.000000 -0.000000 -0.000001 -0.000000 -0.000000 -0.000001 -0.000000 -0.000000 -0.000001 -0.000000 -0.000000 -0.000001 0.658045 -1.924506 15.859501 -54.937954 -45.760013 -97.271524 -0.000007 -55.535992 0.000004 -74.975485 -26.281391 14.629550 35.234555 -17.219633 -17.236877 29.406836 28.726522 -29.411792 -0.000001 0.000004 -0.000003 0.797697 3.221899 -27.804756 0.799601 3.225516 -27.838615 0.000001 -0.000001 -0.000001 0.796792 3.220212 -27.788724 0.800485 3.227226 -27.854650 -0.000002 -0.000001 0.000002 0.797697 3.221914 -27.804752 0.799603 3.225537 -27.838613 0.000001 0.000001 0.000001 2.684963 6.814126 -27.459502 0.809051 -0.835581 -28.291866 -0.000003 0.000000 -0.000000 0.000005 -0.000001 0.000000 -0.134085 -4.148867 0.057176 -166.688827 117.680048 183.667475 -0.000010 69.803721 0.000017 -24.844043 1.637652 -16.745389 40.606643 -3.110577 26.124234 -37.849531 -44.264998 -46.874960 0.000003 -0.000000 -0.000001 3.635330 -6.110994 61.464497 7.728619 -6.904497 96.464442 0.000001 0.000001 0.000003 3.635318 -6.110993 61.464504 7.728610 -6.904480 96.464456 -0.000001 0.000000 0.000000 3.635346 -6.111005 61.464490 7.728606 -6.904489 96.464442 -0.000001 -0.000001 0.000001 3.635346 -6.111027 61.464504 7.728586 -6.904456 96.464449 -0.000001 0.000002 -0.000005 -0.000002 -0.000000 0.000000 -0.000002 0.000003 -0.000001 -0.000002 0.000003 -0.000001 -0.000002 0.000003 -0.000001 -0.000002 0.000003 -0.000001 -0.000002 0.000003 -0.000001 -0.000002 0.000003 -0.000002 -0.000000 0.000001 0.000000 -0.000000 0.000001 0.000000 -0.000001 0.000000 -0.000001 0.000001 -0.000000 0.000000 
3.501575 75.486183 1.208622 20.786491 -5.123181 -25.730018 0.000001 -0.000000 -0.000000 -73.886090 -5.444943 27.083256 68.676541 -8.410205 10.328054 -20.418545 -2.420964 -2.868972 -0.000000 -0.000001 0.000000 0.000001 0.000001 0.000000 0.000001 -0.000001 -0.000001 -27.298086 -29.298807 13.939637 35.406034 -10.659127 0.934315 -16.651690 -8.273096 9.559864 -0.000000 -0.000002 -0.000000 -0.000003 0.000000 0.000001 0.000001 0.000002 0.000002 9.828662 1.253880 -16.648690 6.573795 2.667611 -10.462881 6.388353 2.625521 -10.584652 2.049144 4.309117 -2.841964 -4.886945 18.949346 -1.267612 0.000000 -0.000000 -0.000001 0.000000 -0.000000 -0.000001 0.000000 -0.000000 -0.000001 0.000000 -0.000000 -0.000001 0.000000 -0.000000 -0.000001 0.000000 -0.000000 -0.000001 0.000000 -0.000000 -0.000001 0.000000 -0.000000 -0.000001 0.000000 -0.000000 -0.000001 0.000000 -0.000000 -0.000001 0.000000 -0.000000 -0.000001 0.000000 -0.000000 -0.000001 0.000000 -0.000000 -0.000001 0.000000 -0.000000 -0.000001 0.000000 -0.000000 -0.000001 0.000000 -0.000000 -0.000001 0.000000 -0.000000 -0.000001 0.000000 -0.000000 -0.000001 0.000000 -0.000000 -0.000001 0.564451 -1.708720 15.694793 -54.281439 -46.142497 -96.841366 -0.000030 -55.447937 -0.000035 -75.196572 -25.642161 14.845011 35.234552 -17.219629 -17.236877 29.406840 28.726515 -29.411792 -0.000000 0.000002 -0.000002 0.797696 3.221899 -27.804758 0.799600 3.225513 -27.838618 0.000000 0.000000 0.000001 0.796792 3.220214 -27.788725 0.800485 3.227226 -27.854649 0.000001 0.000000 -0.000003 0.797697 3.221914 -27.804749 0.799604 3.225540 -27.838615 -0.000000 0.000001 0.000001 2.684964 6.814125 -27.459503 0.809051 -0.835584 -28.291866 -0.000002 -0.000002 0.000001 0.000004 -0.000001 0.000001 -0.081816 -3.700188 -0.513613 -166.971119 117.245238 184.572325 -0.000004 69.013413 0.000001 -25.647671 2.088043 -16.706902 40.606636 -3.110573 26.124237 -37.849531 -44.264991 -46.874956 -0.000000 0.000001 -0.000001 3.635326 -6.110992 61.464497 7.728619 -6.904494 96.464442 0.000000 0.000000 0.000003 3.635319 -6.110992 61.464504 7.728613 -6.904485 96.464462 -0.000003 -0.000001 -0.000004 3.635342 -6.111004 61.464490 7.728602 -6.904486 96.464449 -0.000001 -0.000000 -0.000001 3.635346 -6.111027 61.464497 7.728583 -6.904458 96.464449 -0.000001 0.000001 -0.000002 -0.000001 -0.000000 -0.000000 -0.000001 -0.000002 0.000003 -0.000001 -0.000002 0.000003 -0.000001 -0.000002 0.000003 -0.000001 -0.000002 0.000003 -0.000001 -0.000002 0.000003 -0.000001 -0.000002 0.000003 -0.000001 0.000000 -0.000002 -0.000001 0.000000 -0.000002 -0.000000 0.000001 0.000002 0.000001 -0.000000 -0.000000 
